<?xml version="1.0" encoding="UTF-8" standalone="no"?>
<!-- Created with Inkscape (http://www.inkscape.org/) -->

<svg
   xmlns:dc="http://purl.org/dc/elements/1.1/"
   xmlns:cc="http://creativecommons.org/ns#"
   xmlns:rdf="http://www.w3.org/1999/02/22-rdf-syntax-ns#"
   xmlns:svg="http://www.w3.org/2000/svg"
   xmlns="http://www.w3.org/2000/svg"
   xmlns:sodipodi="http://sodipodi.sourceforge.net/DTD/sodipodi-0.dtd"
   xmlns:inkscape="http://www.inkscape.org/namespaces/inkscape"
   version="1.1"
   id="svg2"
   xml:space="preserve"
   width="4096"
   height="4096"
   viewBox="0 0 4096 4095.9999"
   sodipodi:docname="b2w-logo.svg"
   inkscape:export-filename="G:\Users\suitedoalex\sites\b2w-logo-0.png"
   inkscape:export-xdpi="96"
   inkscape:export-ydpi="96"
   inkscape:version="0.92.2 (5c3e80d, 2017-08-06)"><metadata
     id="metadata8"><rdf:RDF><cc:Work
         rdf:about=""><dc:format>image/svg+xml</dc:format><dc:type
           rdf:resource="http://purl.org/dc/dcmitype/StillImage" /><dc:title></dc:title></cc:Work></rdf:RDF></metadata><defs
     id="defs6"><clipPath
       clipPathUnits="userSpaceOnUse"
       id="clipPath28"><path
         d="M 0,0 H 595.275 V 567.562 H 0 Z"
         id="path26"
         inkscape:connector-curvature="0" /></clipPath><clipPath
       clipPathUnits="userSpaceOnUse"
       id="clipPath42"><path
         d="M 0,841.89 H 595.276 V 0 H 0 Z"
         id="path40"
         inkscape:connector-curvature="0" /></clipPath></defs><sodipodi:namedview
     pagecolor="#ffffff"
     bordercolor="#666666"
     borderopacity="1"
     objecttolerance="10"
     gridtolerance="10"
     guidetolerance="10"
     inkscape:pageopacity="0"
     inkscape:pageshadow="2"
     inkscape:window-width="1600"
     inkscape:window-height="837"
     id="namedview4"
     showgrid="false"
     inkscape:zoom="0.10512062"
     inkscape:cx="1220.3353"
     inkscape:cy="1643.7494"
     inkscape:window-x="-8"
     inkscape:window-y="-8"
     inkscape:window-maximized="1"
     inkscape:current-layer="g10" /><g
     id="g10"
     inkscape:groupmode="layer"
     inkscape:label="b2w-logo"
     transform="matrix(1.3333333,0,0,-1.3333333,0,4096)"><g
       id="g36"
       transform="matrix(23.020084,0,0,23.020084,32.02889,-14892.674)"
       inkscape:export-filename="G:\Users\suitedoalex\sites\b2w-logo-4.png"
       inkscape:export-xdpi="13.500831"
       inkscape:export-ydpi="13.500831"><g
         id="g38"
         clip-path="url(#clipPath42)"><g
           id="g44"
           transform="translate(111.6665,713.667)"><path
             d="m 0,0 c 0,-25.589 -20.744,-46.333 -46.334,-46.333 -25.588,0 -46.333,20.744 -46.333,46.333 0,25.589 20.745,46.333 46.333,46.333 C -20.744,46.333 0,25.589 0,0"
             style="fill:#06eac3;fill-opacity:1;fill-rule:nonzero;stroke:none"
             id="path46"
             inkscape:connector-curvature="0" /></g><g
           id="g48"
           transform="translate(39.9238,717.7422)"><path
             d="M 0,0 H -6.98 V -8.91 H 0 c 3.08,0 4.804,1.889 4.804,4.475 C 4.804,-1.848 3.08,0 0,0 M -0.411,12.359 H -6.98 V 3.982 h 6.569 c 2.833,0 4.764,1.479 4.764,4.189 0,2.709 -1.931,4.188 -4.764,4.188 m 0.822,-25.252 h -11.826 v 29.235 h 11.374 c 5.42,0 8.828,-3.08 8.828,-8.007 0,-3.162 -1.971,-5.42 -3.942,-6.2 2.259,-0.904 4.394,-3.079 4.394,-6.775 0,-5.379 -3.655,-8.253 -8.828,-8.253"
             style="fill:#231f20;fill-opacity:1;fill-rule:nonzero;stroke:none"
             id="path50"
             inkscape:connector-curvature="0" /></g><g
           id="g52"
           transform="translate(51.2837,704.8491)"><path
             d="m 0,0 v 3.833 l 11.542,14.029 c 1.138,1.39 1.601,2.485 1.601,4.002 0,2.696 -1.601,4.55 -4.381,4.55 -2.275,0 -4.423,-1.264 -4.423,-4.635 H 0.042 c 0,5.098 3.623,8.468 8.72,8.468 5.139,0 8.678,-3.244 8.678,-8.425 0,-2.654 -0.969,-4.213 -2.822,-6.488 L 5.224,3.833 H 17.44 V 0 Z"
             style="fill:#ffffff;fill-opacity:1;fill-rule:nonzero;stroke:none"
             id="path54"
             inkscape:connector-curvature="0" /></g><g
           id="g56"
           transform="translate(96.2305,704.8491)"><path
             d="M 0,0 H -3.86 L -9.813,20.489 -15.727,0 h -3.859 l -7.638,29.235 h 4.682 l 5.091,-20.9 5.872,20.9 h 3.572 l 5.871,-20.9 5.092,20.9 h 4.681 z"
             style="fill:#231f20;fill-opacity:1;fill-rule:nonzero;stroke:none"
             id="path58"
             inkscape:connector-curvature="0" /></g><g
           id="g60"
           transform="translate(46.2207,695.8169)"><path
             d="m 0,0 v -5.242 h 0.724 c 0.75,0 1.366,0.205 1.848,0.614 0.483,0.409 0.724,1.092 0.724,2.049 0,0.556 -0.116,1.048 -0.349,1.477 -0.232,0.429 -0.57,0.719 -1.011,0.873 C 1.494,-0.077 1.073,0 0.672,0 Z m -1.842,1.603 h 2.896 c 1.237,0 2.232,-0.39 2.986,-1.17 0.753,-0.78 1.131,-1.808 1.131,-3.083 0,-1.28 -0.389,-2.306 -1.167,-3.077 C 3.226,-6.498 2.191,-6.884 0.898,-6.884 h -2.74 z"
             style="fill:#000000;fill-opacity:1;fill-rule:nonzero;stroke:none"
             id="path62"
             inkscape:connector-curvature="0" /></g><path
           d="m 52.729,697.419 h 1.829 v -8.486 h -1.829 z"
           style="fill:#000000;fill-opacity:1;fill-rule:nonzero;stroke:none"
           id="path64"
           inkscape:connector-curvature="0" /><g
           id="g66"
           transform="translate(63.4712,695.5776)"><path
             d="m 0,0 -1.215,-1.138 c -0.254,0.44 -0.569,0.768 -0.944,0.986 -0.374,0.217 -0.766,0.326 -1.176,0.326 -0.664,0 -1.24,-0.252 -1.729,-0.756 -0.489,-0.504 -0.733,-1.099 -0.733,-1.784 0,-0.728 0.244,-1.345 0.733,-1.851 0.489,-0.507 1.079,-0.76 1.768,-0.76 0.375,0 0.735,0.095 1.083,0.285 0.346,0.189 0.626,0.545 0.837,1.066 h -2.011 v 1.655 H 0.53 V -3.07 c 0,-0.565 -0.194,-1.171 -0.581,-1.82 -0.388,-0.648 -0.899,-1.122 -1.532,-1.422 -0.634,-0.299 -1.273,-0.449 -1.92,-0.449 -1.172,0 -2.161,0.425 -2.967,1.274 -0.805,0.848 -1.208,1.898 -1.208,3.147 0,1.185 0.414,2.198 1.244,3.038 0.83,0.84 1.828,1.26 2.996,1.26 C -1.947,1.958 -0.801,1.306 0,0"
             style="fill:#000000;fill-opacity:1;fill-rule:nonzero;stroke:none"
             id="path68"
             inkscape:connector-curvature="0" /></g><path
           d="m 65.274,697.419 h 1.829 v -8.486 h -1.829 z"
           style="fill:#000000;fill-opacity:1;fill-rule:nonzero;stroke:none"
           id="path70"
           inkscape:connector-curvature="0" /><g
           id="g72"
           transform="translate(68.2222,697.4194)"><path
             d="M 0,0 H 5.707 V -1.803 H 3.761 V -8.486 H 1.932 v 6.683 H 0 Z"
             style="fill:#000000;fill-opacity:1;fill-rule:nonzero;stroke:none"
             id="path74"
             inkscape:connector-curvature="0" /></g><g
           id="g76"
           transform="translate(77.875,694.6406)"><path
             d="M 0,0 -0.998,-2.501 H 1.019 Z M -0.709,2.779 H 0.708 L 4.166,-5.708 H 2.325 L 1.646,-4.04 h -3.257 l -0.666,-1.668 h -1.83 z"
             style="fill:#000000;fill-opacity:1;fill-rule:nonzero;stroke:none"
             id="path78"
             inkscape:connector-curvature="0" /></g><g
           id="g80"
           transform="translate(83.3657,697.4194)"><path
             d="M 0,0 H 1.816 V -6.657 H 4.317 V -8.486 H 0 Z"
             style="fill:#000000;fill-opacity:1;fill-rule:nonzero;stroke:none"
             id="path82"
             inkscape:connector-curvature="0" /></g></g></g></g></svg>